{
  "accessors": [
    {
      "bufferView": 1,
      "componentType": 5126,
      "count": 36,
      "max": [
        0.9568600058555603,
        1.104889988899231,
        4.2762198448181152
      ],
      "min": [
        -0.9568600058555603,
        -1.104889988899231,
        -0.27505001425743103
      ],
      "type": "VEC3"
    },
    {
      "bufferView": 1,
      "byteOffset": 432,
      "componentType": 5126,
      "count": 36,
      "max": [
        0.97292047739028931,
        0.85863828659057617,
        1
      ],
      "min": [
        -0.99541699886322021,
        -0.85863828659057617,
        -1
      ],
      "type": "VEC3"
    },
    {
      "bufferView": 0,
      "componentType": 5125,
      "count": 60,
      "max": [
        35
      ],
      "min": [
        0
      ],
      "type": "SCALAR"
    },
    {
      "bufferView": 1,
      "byteOffset": 864,
      "componentType": 5126,
      "count": 300,
      "max": [
        0.97407001256942749,
        1.1247600317001343,
        4.9836897850036621
      ],
      "min": [
        -0.97407001256942749,
        -1.1247600317001343,
        0.13263000547885895
      ],
      "type": "VEC3"
    },
    {
      "bufferView": 1,
      "byteOffset": 4464,
      "componentType": 5126,
      "count": 300,
      "max": [
        0.94931340217590332,
        0.95133990049362183,
        0.42294964194297791
      ],
      "min": [
        -0.94647306203842163,
        -0.94913011789321899,
        -0.86900985240936279
      ],
      "type": "VEC3"
    },
    {
      "bufferView": 0,
      "byteOffset": 240,
      "componentType": 5125,
      "count": 360,
      "max": [
        299
      ],
      "min": [
        0
      ],
      "type": "SCALAR"
    },
    {
      "bufferView": 1,
      "byteOffset": 8064,
      "componentType": 5126,
      "count": 85,
      "max": [
        1.9966599941253662,
        2.0173499584197998,
        -0.77025997638702393
      ],
      "min": [
        -1.9966599941253662,
        -2.0173499584197998,
        -1.4936699867248535
      ],
      "type": "VEC3"
    },
    {
      "bufferView": 1,
      "byteOffset": 9084,
      "componentType": 5126,
      "count": 85,
      "max": [
        0.77283567190170288,
        0.83980250358581543,
        1
      ],
      "min": [
        -0.8767540454864502,
        -0.91852879524230957,
        -0.98166531324386597
      ],
      "type": "VEC3"
    },
    {
      "bufferView": 0,
      "byteOffset": 1680,
      "componentType": 5125,
      "count": 144,
      "max": [
        84
      ],
      "min": [
        0
      ],
      "type": "SCALAR"
    }
  ],
  "asset": {
    "extras": {
      "author": "indian-monk (https://sketchfab.com/indian-monk)",
      "license": "CC-BY-4.0 (http://creativecommons.org/licenses/by/4.0/)",
      "source": "https://sketchfab.com/models/4d79a6bc51de4fdcbf1e5db9dd9c4a2f",
      "title": "Low Poly Tree"
    },
    "generator": "Sketchfab-4.1.5",
    "version": "2.0"
  },
  "bufferViews": [
    {
      "buffer": 0,
      "byteLength": 2256,
      "byteOffset": 0,
      "name": "floatBufferViews",
      "target": 34963
    },
    {
      "buffer": 0,
      "byteLength": 10104,
      "byteOffset": 2256,
      "byteStride": 12,
      "name": "floatBufferViews",
      "target": 34962
    }
  ],
  "buffers": [
    {
      "byteLength": 12360,
      "uri": "scene.bin"
    }
  ],
  "materials": [
    {
      "doubleSided": true,
      "name": "Material.006",
      "pbrMetallicRoughness": {
        "baseColorFactor": [
          0.30032019319999997,
          0.39218956589999998,
          0.1040311498,
          1
        ],
        "metallicFactor": 0,
        "roughnessFactor": 0.59999999999999998
      }
    },
    {
      "doubleSided": true,
      "name": "Material.001",
      "pbrMetallicRoughness": {
        "baseColorFactor": [
          0.093088801031625576,
          0.1624135227853529,
          0.057951628289690596,
          1
        ],
        "metallicFactor": 0,
        "roughnessFactor": 0.59999999999999998
      }
    },
    {
      "doubleSided": true,
      "emissiveFactor": [
        0,
        0,
        0
      ],
      "name": "Material",
      "pbrMetallicRoughness": {
        "baseColorFactor": [
          0.17348858581992355,
          0.083736979907439307,
          0.049302845046894979,
          1
        ],
        "metallicFactor": 0,
        "roughnessFactor": 0.59999999999999998
      }
    }
  ],
  "meshes": [
    {
      "name": "Cylinder.003_0",
      "primitives": [
        {
          "attributes": {
            "NORMAL": 1,
            "POSITION": 0
          },
          "indices": 2,
          "material": 2,
          "mode": 4
        }
      ]
    },
    {
      "name": "Cone.003_0",
      "primitives": [
        {
          "attributes": {
            "NORMAL": 4,
            "POSITION": 3
          },
          "indices": 5,
          "material": 1,
          "mode": 4
        }
      ]
    },
    {
      "name": "Cone.004_0",
      "primitives": [
        {
          "attributes": {
            "NORMAL": 7,
            "POSITION": 6
          },
          "indices": 8,
          "material": 0,
          "mode": 4
        }
      ]
    }
  ],
  "nodes": [
    {
      "children": [
        1
      ],
      "name": "RootNode (gltf orientation matrix)",
      "rotation": [
        -0.70710678118654746,
        -0,
        -0,
        0.70710678118654757
      ]
    },
    {
      "children": [
        2
      ],
      "name": "RootNode (model correction matrix)"
    },
    {
      "children": [
        3,
        5,
        7,
        9,
        11
      ],
      "name": "Root"
    },
    {
      "children": [
        4
      ],
      "matrix": [
        -0.28872000000000003,
        -0.055510000000000011,
        0,
        0,
        0.055510000000000011,
        -0.28872000000000003,
        0,
        0,
        0,
        0,
        0.81772000000000011,
        0,
        0.050580000000000007,
        -0,
        0.41140000000000004,
        1
      ],
      "name": "Cylinder.003"
    },
    {
      "mesh": 0,
      "name": "Cylinder.003_0"
    },
    {
      "children": [
        6
      ],
      "matrix": [
        -0.82103000000000004,
        -0.74642000000000008,
        0,
        0,
        0.74642000000000008,
        -0.82103000000000004,
        0,
        0,
        0,
        0,
        1.10798,
        0,
        0.050580000000000007,
        -0,
        1.8498599999999998,
        1
      ],
      "name": "Cone.003"
    },
    {
      "mesh": 1,
      "name": "Cone.003_0"
    },
    {
      "children": [
        8
      ],
      "matrix": [
        1.62883,
        0,
        0,
        0,
        0,
        -1.62883,
        -0,
        0,
        0,
        0,
        -0.26537000000000005,
        0,
        0,
        0,
        -0.11260000000000002,
        1
      ],
      "name": "Cone.004"
    },
    {
      "mesh": 2,
      "name": "Cone.004_0"
    },
    {
      "children": [
        10
      ],
      "matrix": [
        0.5,
        -0,
        0.86603000000000008,
        0,
        0,
        1,
        0,
        0,
        -0.86603000000000008,
        0,
        0.5,
        0,
        -16.97926,
        -0,
        11.419680000000001,
        1
      ],
      "name": "Hemi"
    },
    {
      "name": "Hemi"
    },
    {
      "children": [
        12
      ],
      "matrix": [
        0.23454000000000003,
        -0.88496000000000008,
        -0.40228999999999998,
        0,
        0.88496000000000008,
        0.023120000000000005,
        0.46509,
        0,
        -0.40228999999999998,
        -0.46509,
        0.78857999999999995,
        0,
        -14.851990000000001,
        -0,
        21.495389999999997,
        1
      ],
      "name": "Sun"
    },
    {
      "name": "Sun"
    }
  ],
  "scene": 0,
  "scenes": [
    {
      "name": "OSG_Scene",
      "nodes": [
        0
      ]
    }
  ]
}

