{
  "accessors": [
    {
      "bufferView": 2,
      "componentType": 5126,
      "count": 117,
      "max": [
        12.098621368408203,
        4.8380975723266602,
        6.9892778396606445
      ],
      "min": [
        8.3610744476318359,
        1.0017919540405273,
        0
      ],
      "type": "VEC3"
    },
    {
      "bufferView": 2,
      "byteOffset": 1404,
      "componentType": 5126,
      "count": 117,
      "max": [
        0.9998619556427002,
        0.99887311458587646,
        1
      ],
      "min": [
        -0.99964058399200439,
        -0.99906569719314575,
        -1
      ],
      "type": "VEC3"
    },
    {
      "bufferView": 3,
      "componentType": 5126,
      "count": 117,
      "max": [
        0.99906575679779053,
        0.99964827299118042,
        1.3433153071673587e-05,
        1
      ],
      "min": [
        -0.99887317419052124,
        -0.99986201524734497,
        -4.785850705957273e-06,
        -1
      ],
      "type": "VEC4"
    },
    {
      "bufferView": 1,
      "componentType": 5126,
      "count": 117,
      "max": [
        0.9912109375,
        1
      ],
      "min": [
        0,
        0.431640625
      ],
      "type": "VEC2"
    },
    {
      "bufferView": 0,
      "componentType": 5125,
      "count": 177,
      "max": [
        116
      ],
      "min": [
        0
      ],
      "type": "SCALAR"
    },
    {
      "bufferView": 2,
      "byteOffset": 2808,
      "componentType": 5126,
      "count": 247,
      "max": [
        8.775364875793457,
        5.1530623435974121,
        5.2370505332946777
      ],
      "min": [
        4.0850038528442383,
        1.3773170709609985,
        0
      ],
      "type": "VEC3"
    },
    {
      "bufferView": 2,
      "byteOffset": 5772,
      "componentType": 5126,
      "count": 247,
      "max": [
        0.99449259042739868,
        0.99484258890151978,
        1
      ],
      "min": [
        -0.99491161108016968,
        -0.99442195892333984,
        -1
      ],
      "type": "VEC3"
    },
    {
      "bufferView": 3,
      "byteOffset": 1872,
      "componentType": 5126,
      "count": 247,
      "max": [
        0.99484270811080933,
        0.99619513750076294,
        3.1014042178867385e-05,
        1
      ],
      "min": [
        -0.99442207813262939,
        -0.99449265003204346,
        -1.9362532839295454e-05,
        -1
      ],
      "type": "VEC4"
    },
    {
      "bufferView": 1,
      "byteOffset": 936,
      "componentType": 5126,
      "count": 247,
      "max": [
        0.998046875,
        1
      ],
      "min": [
        0,
        0.046875
      ],
      "type": "VEC2"
    },
    {
      "bufferView": 0,
      "byteOffset": 708,
      "componentType": 5125,
      "count": 375,
      "max": [
        246
      ],
      "min": [
        0
      ],
      "type": "SCALAR"
    },
    {
      "bufferView": 2,
      "byteOffset": 8736,
      "componentType": 5126,
      "count": 386,
      "max": [
        4.7836241722106934,
        6.2448372840881348,
        4.3635435104370117
      ],
      "min": [
        -0.94664973020553589,
        3.5431191921234131,
        0
      ],
      "type": "VEC3"
    },
    {
      "bufferView": 2,
      "byteOffset": 13368,
      "componentType": 5126,
      "count": 386,
      "max": [
        0.98902934789657593,
        0.99756240844726562,
        1
      ],
      "min": [
        -0.97478181123733521,
        -0.99841463565826416,
        -1
      ],
      "type": "VEC3"
    },
    {
      "bufferView": 3,
      "byteOffset": 5824,
      "componentType": 5126,
      "count": 386,
      "max": [
        0.99841475486755371,
        0.9890294075012207,
        1.2327895092312247e-05,
        1
      ],
      "min": [
        -0.99756240844726562,
        -0.97478181123733521,
        -2.3677681383560412e-05,
        -1
      ],
      "type": "VEC4"
    },
    {
      "bufferView": 1,
      "byteOffset": 2912,
      "componentType": 5126,
      "count": 386,
      "max": [
        1,
        1
      ],
      "min": [
        0,
        0.3597005307674408
      ],
      "type": "VEC2"
    },
    {
      "bufferView": 0,
      "byteOffset": 2208,
      "componentType": 5125,
      "count": 648,
      "max": [
        385
      ],
      "min": [
        0
      ],
      "type": "SCALAR"
    },
    {
      "bufferView": 2,
      "byteOffset": 18000,
      "componentType": 5126,
      "count": 760,
      "max": [
        11.109530448913574,
        0.68676179647445679,
        4.0011358261108398
      ],
      "min": [
        3.0730373859405518,
        -4.658686637878418,
        0
      ],
      "type": "VEC3"
    },
    {
      "bufferView": 2,
      "byteOffset": 27120,
      "componentType": 5126,
      "count": 760,
      "max": [
        0.99990689754486084,
        0.99994957447052002,
        1
      ],
      "min": [
        -0.99995976686477661,
        -0.99999880790710449,
        -1
      ],
      "type": "VEC3"
    },
    {
      "bufferView": 3,
      "byteOffset": 12000,
      "componentType": 5126,
      "count": 760,
      "max": [
        0.99999302625656128,
        0.99995982646942139,
        8.735003211768344e-05,
        1
      ],
      "min": [
        -0.99999886751174927,
        -0.99990695714950562,
        -4.8617428547004238e-05,
        -1
      ],
      "type": "VEC4"
    },
    {
      "bufferView": 1,
      "byteOffset": 6000,
      "componentType": 5126,
      "count": 760,
      "max": [
        1,
        1
      ],
      "min": [
        0,
        0.142578125
      ],
      "type": "VEC2"
    },
    {
      "bufferView": 0,
      "byteOffset": 4800,
      "componentType": 5125,
      "count": 1338,
      "max": [
        759
      ],
      "min": [
        0
      ],
      "type": "SCALAR"
    },
    {
      "bufferView": 2,
      "byteOffset": 36240,
      "componentType": 5126,
      "count": 685,
      "max": [
        -0.79828733205795288,
        8.7178373336791992,
        4.7449030876159668
      ],
      "min": [
        -13.118802070617676,
        -2.1621749401092529,
        0
      ],
      "type": "VEC3"
    },
    {
      "bufferView": 2,
      "byteOffset": 44460,
      "componentType": 5126,
      "count": 685,
      "max": [
        0.99932438135147095,
        0.99940347671508789,
        1
      ],
      "min": [
        -0.99940109252929688,
        -0.99971896409988403,
        -1
      ],
      "type": "VEC3"
    },
    {
      "bufferView": 3,
      "byteOffset": 24160,
      "componentType": 5126,
      "count": 685,
      "max": [
        0.99940347671508789,
        0.99940115213394165,
        2.1350244878703961e-06,
        1
      ],
      "min": [
        -1,
        -0.9993245005607605,
        -2.9509012620110298e-06,
        -1
      ],
      "type": "VEC4"
    },
    {
      "bufferView": 1,
      "byteOffset": 12080,
      "componentType": 5126,
      "count": 685,
      "max": [
        1,
        1
      ],
      "min": [
        0,
        0.31982421875
      ],
      "type": "VEC2"
    },
    {
      "bufferView": 0,
      "byteOffset": 10152,
      "componentType": 5125,
      "count": 1059,
      "max": [
        684
      ],
      "min": [
        0
      ],
      "type": "SCALAR"
    },
    {
      "bufferView": 2,
      "byteOffset": 52680,
      "componentType": 5126,
      "count": 609,
      "max": [
        4.2488675117492676,
        3.4915823936462402,
        4.7902202606201172
      ],
      "min": [
        -3.1649518013000488,
        -3.4722204208374023,
        0
      ],
      "type": "VEC3"
    },
    {
      "bufferView": 2,
      "byteOffset": 59988,
      "componentType": 5126,
      "count": 609,
      "max": [
        0.99999904632568359,
        1,
        1
      ],
      "min": [
        -0.99999994039535522,
        -1,
        -1
      ],
      "type": "VEC3"
    },
    {
      "bufferView": 3,
      "byteOffset": 35120,
      "componentType": 5126,
      "count": 609,
      "max": [
        1,
        1,
        1.07137475424679e-05,
        1
      ],
      "min": [
        -1,
        -0.99999904632568359,
        -8.6485488282050937e-06,
        -1
      ],
      "type": "VEC4"
    },
    {
      "bufferView": 1,
      "byteOffset": 17560,
      "componentType": 5126,
      "count": 609,
      "max": [
        1,
        1
      ],
      "min": [
        0,
        0.3336588442325592
      ],
      "type": "VEC2"
    },
    {
      "bufferView": 0,
      "byteOffset": 14388,
      "componentType": 5125,
      "count": 1041,
      "max": [
        608
      ],
      "min": [
        0
      ],
      "type": "SCALAR"
    },
    {
      "bufferView": 2,
      "byteOffset": 67296,
      "componentType": 5126,
      "count": 545,
      "max": [
        4.2114448547363281,
        -1.8538327217102051,
        5.1697115898132324
      ],
      "min": [
        -4.0152297019958496,
        -9.6207542419433594,
        0
      ],
      "type": "VEC3"
    },
    {
      "bufferView": 2,
      "byteOffset": 73836,
      "componentType": 5126,
      "count": 545,
      "max": [
        0.99996000528335571,
        0.99989551305770874,
        1
      ],
      "min": [
        -0.99991655349731445,
        -0.99997818470001221,
        -1
      ],
      "type": "VEC3"
    },
    {
      "bufferView": 3,
      "byteOffset": 44864,
      "componentType": 5126,
      "count": 545,
      "max": [
        0.99989557266235352,
        0.999916672706604,
        5.11094640387455e-06,
        1
      ],
      "min": [
        -1,
        -0.99996006488800049,
        -4.3628238017845433e-06,
        -1
      ],
      "type": "VEC4"
    },
    {
      "bufferView": 1,
      "byteOffset": 22432,
      "componentType": 5126,
      "count": 545,
      "max": [
        1,
        1
      ],
      "min": [
        0,
        0.0810546875
      ],
      "type": "VEC2"
    },
    {
      "bufferView": 0,
      "byteOffset": 18552,
      "componentType": 5125,
      "count": 909,
      "max": [
        544
      ],
      "min": [
        0
      ],
      "type": "SCALAR"
    },
    {
      "bufferView": 2,
      "byteOffset": 80376,
      "componentType": 5126,
      "count": 94,
      "max": [
        2.6449334621429443,
        -9.0564737319946289,
        5.1278796195983887
      ],
      "min": [
        -0.96498298645019531,
        -22.024667739868164,
        0
      ],
      "type": "VEC3"
    },
    {
      "bufferView": 2,
      "byteOffset": 81504,
      "componentType": 5126,
      "count": 94,
      "max": [
        0.98507755994796753,
        0.99908268451690674,
        1
      ],
      "min": [
        -0.99220329523086548,
        -0.99908268451690674,
        -1
      ],
      "type": "VEC3"
    },
    {
      "bufferView": 3,
      "byteOffset": 53584,
      "componentType": 5126,
      "count": 94,
      "max": [
        0.99908274412155151,
        0.99220329523086548,
        1.0239648872811813e-05,
        1
      ],
      "min": [
        -0.99908274412155151,
        -0.97964739799499512,
        -1.5527502910117619e-05,
        -1
      ],
      "type": "VEC4"
    },
    {
      "bufferView": 1,
      "byteOffset": 26792,
      "componentType": 5126,
      "count": 94,
      "max": [
        0.99365234375,
        1
      ],
      "min": [
        0,
        0.37451171875
      ],
      "type": "VEC2"
    },
    {
      "bufferView": 0,
      "byteOffset": 22188,
      "componentType": 5125,
      "count": 150,
      "max": [
        93
      ],
      "min": [
        0
      ],
      "type": "SCALAR"
    }
  ],
  "asset": {
    "extras": {
      "author": "walkaboutworlds (https://sketchfab.com/walkaboutworlds)",
      "license": "CC-BY-4.0 (http://creativecommons.org/licenses/by/4.0/)",
      "source": "https://sketchfab.com/models/b91dcb9ccfcb44b7bce85fe201aad2d9",
      "title": "Multi room with rescaling and rotation attempt 1"
    },
    "generator": "Sketchfab-3.20.7",
    "version": "2.0"
  },
  "bufferViews": [
    {
      "buffer": 0,
      "byteLength": 22788,
      "byteOffset": 0,
      "name": "floatBufferViews",
      "target": 34963
    },
    {
      "buffer": 0,
      "byteLength": 27544,
      "byteOffset": 22788,
      "byteStride": 8,
      "name": "floatBufferViews",
      "target": 34962
    },
    {
      "buffer": 0,
      "byteLength": 82632,
      "byteOffset": 50332,
      "byteStride": 12,
      "name": "floatBufferViews",
      "target": 34962
    },
    {
      "buffer": 0,
      "byteLength": 55088,
      "byteOffset": 132964,
      "byteStride": 16,
      "name": "floatBufferViews",
      "target": 34962
    }
  ],
  "buffers": [
    {
      "byteLength": 188052,
      "uri": "scene.bin"
    }
  ],
  "extensionsUsed": [
    "KHR_materials_unlit"
  ],
  "images": [
    {
      "uri": "textures/R0010089objmtl_baseColor.png"
    },
    {
      "uri": "textures/R0010081objmtl_baseColor.png"
    },
    {
      "uri": "textures/R0010084objmtl_baseColor.png"
    },
    {
      "uri": "textures/R0010079objmtl_baseColor.png"
    },
    {
      "uri": "textures/R0010088objmtl_baseColor.png"
    },
    {
      "uri": "textures/R0010080objmtl_baseColor.png"
    },
    {
      "uri": "textures/R0010082objmtl_baseColor.png"
    },
    {
      "uri": "textures/R0010085objmtl_baseColor.png"
    }
  ],
  "materials": [
    {
      "doubleSided": true,
      "emissiveFactor": [
        0,
        0,
        0
      ],
      "extensions": {
        "KHR_materials_unlit": {}
      },
      "name": "R0010079objmtl",
      "pbrMetallicRoughness": {
        "baseColorFactor": [
          1,
          1,
          1,
          1
        ],
        "baseColorTexture": {
          "index": 3,
          "texCoord": 0
        },
        "metallicFactor": 0,
        "roughnessFactor": 1
      }
    },
    {
      "doubleSided": true,
      "emissiveFactor": [
        0,
        0,
        0
      ],
      "extensions": {
        "KHR_materials_unlit": {}
      },
      "name": "R0010080objmtl",
      "pbrMetallicRoughness": {
        "baseColorFactor": [
          1,
          1,
          1,
          1
        ],
        "baseColorTexture": {
          "index": 5,
          "texCoord": 0
        },
        "metallicFactor": 0,
        "roughnessFactor": 1
      }
    },
    {
      "doubleSided": true,
      "emissiveFactor": [
        0,
        0,
        0
      ],
      "extensions": {
        "KHR_materials_unlit": {}
      },
      "name": "R0010081objmtl",
      "pbrMetallicRoughness": {
        "baseColorFactor": [
          1,
          1,
          1,
          1
        ],
        "baseColorTexture": {
          "index": 1,
          "texCoord": 0
        },
        "metallicFactor": 0,
        "roughnessFactor": 1
      }
    },
    {
      "doubleSided": true,
      "emissiveFactor": [
        0,
        0,
        0
      ],
      "extensions": {
        "KHR_materials_unlit": {}
      },
      "name": "R0010082objmtl",
      "pbrMetallicRoughness": {
        "baseColorFactor": [
          1,
          1,
          1,
          1
        ],
        "baseColorTexture": {
          "index": 6,
          "texCoord": 0
        },
        "metallicFactor": 0,
        "roughnessFactor": 1
      }
    },
    {
      "doubleSided": true,
      "emissiveFactor": [
        0,
        0,
        0
      ],
      "extensions": {
        "KHR_materials_unlit": {}
      },
      "name": "R0010084objmtl",
      "pbrMetallicRoughness": {
        "baseColorFactor": [
          1,
          1,
          1,
          1
        ],
        "baseColorTexture": {
          "index": 2,
          "texCoord": 0
        },
        "metallicFactor": 0,
        "roughnessFactor": 1
      }
    },
    {
      "doubleSided": true,
      "emissiveFactor": [
        0,
        0,
        0
      ],
      "extensions": {
        "KHR_materials_unlit": {}
      },
      "name": "R0010085objmtl",
      "pbrMetallicRoughness": {
        "baseColorFactor": [
          1,
          1,
          1,
          1
        ],
        "baseColorTexture": {
          "index": 7,
          "texCoord": 0
        },
        "metallicFactor": 0,
        "roughnessFactor": 1
      }
    },
    {
      "doubleSided": true,
      "emissiveFactor": [
        0,
        0,
        0
      ],
      "extensions": {
        "KHR_materials_unlit": {}
      },
      "name": "R0010088objmtl",
      "pbrMetallicRoughness": {
        "baseColorFactor": [
          1,
          1,
          1,
          1
        ],
        "baseColorTexture": {
          "index": 4,
          "texCoord": 0
        },
        "metallicFactor": 0,
        "roughnessFactor": 1
      }
    },
    {
      "doubleSided": true,
      "emissiveFactor": [
        0,
        0,
        0
      ],
      "extensions": {
        "KHR_materials_unlit": {}
      },
      "name": "R0010089objmtl",
      "pbrMetallicRoughness": {
        "baseColorFactor": [
          1,
          1,
          1,
          1
        ],
        "baseColorTexture": {
          "index": 0,
          "texCoord": 0
        },
        "metallicFactor": 0,
        "roughnessFactor": 1
      }
    }
  ],
  "meshes": [
    {
      "primitives": [
        {
          "attributes": {
            "NORMAL": 1,
            "POSITION": 0,
            "TANGENT": 2,
            "TEXCOORD_0": 3
          },
          "indices": 4,
          "material": 0,
          "mode": 4
        }
      ]
    },
    {
      "primitives": [
        {
          "attributes": {
            "NORMAL": 6,
            "POSITION": 5,
            "TANGENT": 7,
            "TEXCOORD_0": 8
          },
          "indices": 9,
          "material": 1,
          "mode": 4
        }
      ]
    },
    {
      "primitives": [
        {
          "attributes": {
            "NORMAL": 11,
            "POSITION": 10,
            "TANGENT": 12,
            "TEXCOORD_0": 13
          },
          "indices": 14,
          "material": 2,
          "mode": 4
        }
      ]
    },
    {
      "primitives": [
        {
          "attributes": {
            "NORMAL": 16,
            "POSITION": 15,
            "TANGENT": 17,
            "TEXCOORD_0": 18
          },
          "indices": 19,
          "material": 3,
          "mode": 4
        }
      ]
    },
    {
      "primitives": [
        {
          "attributes": {
            "NORMAL": 21,
            "POSITION": 20,
            "TANGENT": 22,
            "TEXCOORD_0": 23
          },
          "indices": 24,
          "material": 4,
          "mode": 4
        }
      ]
    },
    {
      "primitives": [
        {
          "attributes": {
            "NORMAL": 26,
            "POSITION": 25,
            "TANGENT": 27,
            "TEXCOORD_0": 28
          },
          "indices": 29,
          "material": 5,
          "mode": 4
        }
      ]
    },
    {
      "primitives": [
        {
          "attributes": {
            "NORMAL": 31,
            "POSITION": 30,
            "TANGENT": 32,
            "TEXCOORD_0": 33
          },
          "indices": 34,
          "material": 6,
          "mode": 4
        }
      ]
    },
    {
      "primitives": [
        {
          "attributes": {
            "NORMAL": 36,
            "POSITION": 35,
            "TANGENT": 37,
            "TEXCOORD_0": 38
          },
          "indices": 39,
          "material": 7,
          "mode": 4
        }
      ]
    }
  ],
  "nodes": [
    {
      "children": [
        1
      ],
      "name": "RootNode (gltf orientation matrix)",
      "rotation": [
        -0.70710678118654746,
        -0,
        -0,
        0.70710678118654757
      ]
    },
    {
      "children": [
        2
      ],
      "name": "RootNode (model correction matrix)"
    },
    {
      "children": [
        3,
        4,
        5,
        6,
        7,
        8,
        9,
        10
      ],
      "name": "combined.obj.cleaner.gles"
    },
    {
      "mesh": 0,
      "name": ""
    },
    {
      "mesh": 1,
      "name": ""
    },
    {
      "mesh": 2,
      "name": ""
    },
    {
      "mesh": 3,
      "name": ""
    },
    {
      "mesh": 4,
      "name": ""
    },
    {
      "mesh": 5,
      "name": ""
    },
    {
      "mesh": 6,
      "name": ""
    },
    {
      "mesh": 7,
      "name": ""
    }
  ],
  "samplers": [
    {
      "magFilter": 9729,
      "minFilter": 9987,
      "wrapS": 10497,
      "wrapT": 10497
    }
  ],
  "scene": 0,
  "scenes": [
    {
      "name": "OSG_Scene",
      "nodes": [
        0
      ]
    }
  ],
  "textures": [
    {
      "sampler": 0,
      "source": 0
    },
    {
      "sampler": 0,
      "source": 1
    },
    {
      "sampler": 0,
      "source": 2
    },
    {
      "sampler": 0,
      "source": 3
    },
    {
      "sampler": 0,
      "source": 4
    },
    {
      "sampler": 0,
      "source": 5
    },
    {
      "sampler": 0,
      "source": 6
    },
    {
      "sampler": 0,
      "source": 7
    }
  ]
}

