{
    "accessors" : [
        {
            "bufferView" : 0,
            "componentType" : 5123,
            "count" : 1731,
            "max" : [
                322
            ],
            "min" : [
                0
            ],
            "type" : "SCALAR"
        },
        {
            "bufferView" : 1,
            "componentType" : 5126,
            "count" : 323,
            "max" : [
                0.15792489051818848,
                0.15674912929534912,
                0.061535194516181946
            ],
            "min" : [
                -0.4582333564758301,
                -0.17238059639930725,
                -0.21992748975753784
            ],
            "type" : "VEC3"
        },
        {
            "bufferView" : 2,
            "componentType" : 5126,
            "count" : 323,
            "max" : [
                0.999176025390625,
                0.9926145076751709,
                0.9984740614891052
            ],
            "min" : [
                -0.9973143935203552,
                -0.8633075952529907,
                -0.7319864630699158
            ],
            "type" : "VEC3"
        },
        {
            "bufferView" : 3,
            "componentType" : 5126,
            "count" : 323,
            "max" : [
                0.8067142367362976,
                0.9999604225158691,
                0.9098857045173645,
                -1.0
            ],
            "min" : [
                -0.8693915605545044,
                -0.9997087717056274,
                -0.993733286857605,
                -1.0
            ],
            "type" : "VEC4"
        },
        {
            "bufferView" : 4,
            "componentType" : 5126,
            "count" : 323,
            "max" : [
                0.9849458336830139,
                0.9841545820236206
            ],
            "min" : [
                0.014891918748617172,
                0.01734018325805664
            ],
            "type" : "VEC2"
        },
        {
            "bufferView" : 5,
            "componentType" : 5123,
            "count" : 42078,
            "max" : [
                7592
            ],
            "min" : [
                0
            ],
            "type" : "SCALAR"
        },
        {
            "bufferView" : 6,
            "componentType" : 5126,
            "count" : 7593,
            "max" : [
                0.6643412113189697,
                0.6482781767845154,
                2.0518336296081543
            ],
            "min" : [
                -0.6517167091369629,
                -0.5843505859375,
                -2.005641460418701
            ],
            "type" : "VEC3"
        },
        {
            "bufferView" : 7,
            "componentType" : 5126,
            "count" : 7593,
            "max" : [
                0.999969482421875,
                0.999908447265625,
                0.9996337890625
            ],
            "min" : [
                -0.999969482421875,
                -0.999969482421875,
                -0.999053955078125
            ],
            "type" : "VEC3"
        },
        {
            "bufferView" : 8,
            "componentType" : 5126,
            "count" : 7593,
            "max" : [
                0.9988012909889221,
                0.9990355968475342,
                0.9999876022338867,
                1.0
            ],
            "min" : [
                -0.9900020360946655,
                -0.9991048574447632,
                -0.9999970197677612,
                -1.0
            ],
            "type" : "VEC4"
        },
        {
            "bufferView" : 9,
            "componentType" : 5126,
            "count" : 7593,
            "max" : [
                0.9980400204658508,
                0.8845599889755249
            ],
            "min" : [
                0.0019499999471008778,
                0.0019500255584716797
            ],
            "type" : "VEC2"
        },
        {
            "bufferView" : 10,
            "componentType" : 5123,
            "count" : 4674,
            "max" : [
                973
            ],
            "min" : [
                0
            ],
            "type" : "SCALAR"
        },
        {
            "bufferView" : 11,
            "componentType" : 5126,
            "count" : 974,
            "max" : [
                0.24524492025375366,
                0.8282439708709717,
                0.23680970072746277
            ],
            "min" : [
                -0.24235863983631134,
                -0.12361057102680206,
                -0.07238243520259857
            ],
            "type" : "VEC3"
        },
        {
            "bufferView" : 12,
            "componentType" : 5126,
            "count" : 974,
            "max" : [
                0.99908447265625,
                0.9922482967376709,
                0.999420166015625
            ],
            "min" : [
                -0.9960020780563354,
                -0.9938963055610657,
                -0.9998779296875
            ],
            "type" : "VEC3"
        },
        {
            "bufferView" : 13,
            "componentType" : 5126,
            "count" : 974,
            "max" : [
                0.9983388781547546,
                0.9997934699058533,
                0.9914484620094299,
                1.0
            ],
            "min" : [
                -0.9997869729995728,
                -0.9994751811027527,
                -0.9979821443557739,
                -1.0
            ],
            "type" : "VEC4"
        },
        {
            "bufferView" : 14,
            "componentType" : 5126,
            "count" : 974,
            "max" : [
                0.9967917799949646,
                0.9996668100357056
            ],
            "min" : [
                0.005282417871057987,
                0.19737112522125244
            ],
            "type" : "VEC2"
        }
    ],
    "asset" : {
        "generator" : "Khronos Blender glTF 2.0 exporter",
        "version" : "2.0"
    },
    "bufferViews" : [
        {
            "buffer" : 0,
            "byteLength" : 3462,
            "byteOffset" : 0,
            "target" : 34963
        },
        {
            "buffer" : 0,
            "byteLength" : 3876,
            "byteOffset" : 3464,
            "target" : 34962
        },
        {
            "buffer" : 0,
            "byteLength" : 3876,
            "byteOffset" : 7340,
            "target" : 34962
        },
        {
            "buffer" : 0,
            "byteLength" : 5168,
            "byteOffset" : 11216,
            "target" : 34962
        },
        {
            "buffer" : 0,
            "byteLength" : 2584,
            "byteOffset" : 16384,
            "target" : 34962
        },
        {
            "buffer" : 0,
            "byteLength" : 84156,
            "byteOffset" : 18968,
            "target" : 34963
        },
        {
            "buffer" : 0,
            "byteLength" : 91116,
            "byteOffset" : 103124,
            "target" : 34962
        },
        {
            "buffer" : 0,
            "byteLength" : 91116,
            "byteOffset" : 194240,
            "target" : 34962
        },
        {
            "buffer" : 0,
            "byteLength" : 121488,
            "byteOffset" : 285356,
            "target" : 34962
        },
        {
            "buffer" : 0,
            "byteLength" : 60744,
            "byteOffset" : 406844,
            "target" : 34962
        },
        {
            "buffer" : 0,
            "byteLength" : 9348,
            "byteOffset" : 467588,
            "target" : 34963
        },
        {
            "buffer" : 0,
            "byteLength" : 11688,
            "byteOffset" : 476936,
            "target" : 34962
        },
        {
            "buffer" : 0,
            "byteLength" : 11688,
            "byteOffset" : 488624,
            "target" : 34962
        },
        {
            "buffer" : 0,
            "byteLength" : 15584,
            "byteOffset" : 500312,
            "target" : 34962
        },
        {
            "buffer" : 0,
            "byteLength" : 7792,
            "byteOffset" : 515896,
            "target" : 34962
        }
    ],
    "buffers" : [
        {
            "byteLength" : 523688,
            "uri" : "rick.bin"
        }
    ],
    "images" : [
        {
            "name" : "images[6]",
            "uri" : "images[6].jpg"
        },
        {
            "name" : "images[5]",
            "uri" : "images[5].png"
        },
        {
            "name" : "images[4]",
            "uri" : "images[4].png"
        },
        {
            "name" : "images[3]",
            "uri" : "images[3].jpg"
        },
        {
            "name" : "images[2]",
            "uri" : "images[2].jpg"
        },
        {
            "name" : "images[1]",
            "uri" : "images[1].png"
        },
        {
            "name" : "images[0]",
            "uri" : "images[0].jpg"
        }
    ],
    "materials" : [
        {
            "doubleSided" : true,
            "emissiveFactor" : [
                1.0,
                1.0,
                1.0
            ],
            "emissiveTexture" : {
                "index" : 3
            },
            "name" : "04_-_Default",
            "normalTexture" : {
                "index" : 2
            },
            "pbrMetallicRoughness" : {
                "baseColorFactor" : [
                    0.0,
                    0.0,
                    0.0,
                    1.0
                ],
                "baseColorTexture" : {
                    "index" : 0
                },
                "metallicFactor" : 0.0,
                "metallicRoughnessTexture" : {
                    "index" : 1
                }
            }
        },
        {
            "doubleSided" : true,
            "emissiveFactor" : [
                1.0,
                1.0,
                1.0
            ],
            "emissiveTexture" : {
                "index" : 6
            },
            "name" : "material",
            "normalTexture" : {
                "index" : 5
            },
            "pbrMetallicRoughness" : {
                "baseColorFactor" : [
                    0.0,
                    0.0,
                    0.0,
                    1.0
                ],
                "baseColorTexture" : {
                    "index" : 4
                },
                "metallicFactor" : 0.0,
                "roughnessFactor" : 0.07997898757457733
            }
        }
    ],
    "meshes" : [
        {
            "name" : "GeoSphere001_eye_0",
            "primitives" : [
                {
                    "attributes" : {
                        "NORMAL" : 2,
                        "POSITION" : 1,
                        "TANGENT" : 3,
                        "TEXCOORD_0" : 4
                    },
                    "indices" : 0,
                    "material" : 1
                }
            ]
        },
        {
            "name" : "pickle_rick_low_04 - Default_0",
            "primitives" : [
                {
                    "attributes" : {
                        "NORMAL" : 7,
                        "POSITION" : 6,
                        "TANGENT" : 8,
                        "TEXCOORD_0" : 9
                    },
                    "indices" : 5,
                    "material" : 0
                }
            ]
        },
        {
            "name" : "teath_04 - Default_0",
            "primitives" : [
                {
                    "attributes" : {
                        "NORMAL" : 12,
                        "POSITION" : 11,
                        "TANGENT" : 13,
                        "TEXCOORD_0" : 14
                    },
                    "indices" : 10,
                    "material" : 0
                }
            ]
        }
    ],
    "nodes" : [
        {
            "name" : "Camera",
            "rotation" : [
                0.483536034822464,
                0.33687159419059753,
                -0.20870360732078552,
                0.7804827094078064
            ],
            "translation" : [
                7.481131553649902,
                5.34366512298584,
                6.5076398849487305
            ]
        },
        {
            "children" : [
                7
            ],
            "name" : "fe48b7c1632f4a549fafe6945f5d74c2.fbx",
            "rotation" : [
                0.7071068286895752,
                0.0,
                1.543463801212397e-09,
                0.7071067094802856
            ],
            "scale" : [
                0.9999999403953552,
                1.0,
                1.0000001192092896
            ],
            "translation" : [
                -1.862645149230957e-09,
                0.0,
                4.656612873077393e-10
            ]
        },
        {
            "children" : [
                3
            ],
            "name" : "GeoSphere001",
            "rotation" : [
                7.907601684564725e-08,
                0.2099832445383072,
                -1.6360553800609523e-08,
                0.9777050018310547
            ],
            "scale" : [
                2.445364475250244,
                2.445364475250244,
                2.445364236831665
            ],
            "translation" : [
                0.6189886927604675,
                3.212153196334839,
                0.8697822093963623
            ]
        },
        {
            "mesh" : 0,
            "name" : "GeoSphere001_eye_0",
            "rotation" : [
                1.1641532182693481e-09,
                1.490843715146184e-08,
                9.313225746154785e-10,
                1.0
            ],
            "translation" : [
                0.0,
                0.0,
                -2.9802322387695312e-08
            ]
        },
        {
            "name" : "Lamp",
            "rotation" : [
                0.16907575726509094,
                0.7558802962303162,
                -0.27217137813568115,
                0.570947527885437
            ],
            "scale" : [
                1.0,
                1.0,
                0.9999999403953552
            ],
            "translation" : [
                4.076245307922363,
                5.903861999511719,
                -1.0054539442062378
            ]
        },
        {
            "children" : [
                6
            ],
            "name" : "pickle_rick_low",
            "rotation" : [
                -0.7071068286895752,
                -1.2963477513672217e-10,
                4.861305247239045e-10,
                0.7071067094802856
            ],
            "scale" : [
                2.5399999618530273,
                2.5400002002716064,
                2.5399997234344482
            ],
            "translation" : [
                8.244975090026855,
                -6.737387180328369,
                1.065612554550171
            ]
        },
        {
            "mesh" : 1,
            "name" : "pickle_rick_low_04 - Default_0",
            "rotation" : [
                -4.65661453841193e-10,
                5.587935447692871e-09,
                1.775333657860756e-09,
                1.0
            ],
            "scale" : [
                1.0,
                0.9999999403953552,
                1.0000001192092896
            ],
            "translation" : [
                -3.2776217460632324,
                0.5115001201629639,
                2.4827935695648193
            ]
        },
        {
            "children" : [
                2,
                5,
                10
            ],
            "name" : "RootNode",
            "rotation" : [
                0.0,
                -5.238689482212067e-10,
                9.31322685637781e-10,
                1.0
            ],
            "scale" : [
                0.9999999403953552,
                0.9999998807907104,
                1.0
            ],
            "translation" : [
                -1.862645149230957e-09,
                -4.656612873077393e-10,
                -0.0
            ]
        },
        {
            "children" : [
                9
            ],
            "name" : "RootNode (gltf orientation matrix)",
            "rotation" : [
                -0.7071068286895752,
                0.0,
                -0.0,
                0.7071067094802856
            ],
            "scale" : [
                1.0,
                1.0000001192092896,
                1.0000001192092896
            ]
        },
        {
            "children" : [
                1
            ],
            "name" : "RootNode (model correction matrix)",
            "rotation" : [
                -0.013220209628343582,
                0.01652086153626442,
                0.01422419399023056,
                0.9996749758720398
            ],
            "scale" : [
                1.0,
                1.0,
                0.9999998807907104
            ],
            "translation" : [
                0.02119065448641777,
                0.01205295231193304,
                0.0056959111243486404
            ]
        },
        {
            "children" : [
                11
            ],
            "name" : "teath",
            "rotation" : [
                7.993241979420418e-08,
                -1.8333123907865456e-10,
                7.333249563146182e-10,
                1.0
            ],
            "scale" : [
                2.5399999618530273,
                2.539999485015869,
                2.5399999618530273
            ],
            "translation" : [
                0.2064291089773178,
                2.0748133659362793,
                0.4155752658843994
            ]
        },
        {
            "mesh" : 2,
            "name" : "teath_04 - Default_0",
            "rotation" : [
                4.656612873077393e-10,
                -4.3655690173949324e-11,
                -0.0,
                1.0
            ],
            "scale" : [
                1.0,
                1.0,
                0.9999999403953552
            ],
            "translation" : [
                0.0,
                0.0,
                -1.4901161193847656e-08
            ]
        }
    ],
    "samplers" : [
        {}
    ],
    "scene" : 0,
    "scenes" : [
        {
            "name" : "Scene",
            "nodes" : [
                8,
                4,
                0
            ]
        }
    ],
    "textures" : [
        {
            "sampler" : 0,
            "source" : 0
        },
        {
            "sampler" : 0,
            "source" : 1
        },
        {
            "sampler" : 0,
            "source" : 2
        },
        {
            "sampler" : 0,
            "source" : 3
        },
        {
            "sampler" : 0,
            "source" : 4
        },
        {
            "sampler" : 0,
            "source" : 5
        },
        {
            "sampler" : 0,
            "source" : 6
        }
    ]
}
